<svg id="Capa_1" enable-background="new 0 0 511 511" height="512" viewBox="0 0 511 511" width="512" xmlns="http://www.w3.org/2000/svg"><g id="Outline_1_"><path d="m404.829 205.005-87.904 13.268 40.075-40.075v-106.168l-64.765 69.562h-73.47l-64.765-69.562v106.168l40.075 40.074-87.904-13.268-106.171 142.603v15.634l74.864-14.973 28.575 30.692 37.501-26.043 40.253 22.362 74.307 63.691 74.307-63.691 40.253-22.362 37.501 26.043 28.575-30.692 74.864 14.972v-15.634zm-62.829-94.851v61.832l-15.011 15.011-22.154-36.924zm-122.253 46.438h71.507l24.803 41.337-60.557 60.557-60.556-60.556zm-35.736 30.405-15.011-15.011v-61.832l37.165 39.918zm-112.626 146.67-49.707 9.941 71.348-95.83zm34.176 25.557-19.791-21.256 23.502-93.273 22.754 96.152zm74.727-1.607-33.252-18.474-27.682-116.979 87.142 13.154zm75.212 61.597-61.732-52.913 26.177-122.158 35.555 35.555 35.555-35.555 26.177 122.158zm108.464-80.071-33.252 18.474-26.207-122.299 87.142-13.154zm41.475 20.081-26.464-18.378 22.754-96.152 23.502 93.273zm34.176-25.557-21.641-85.889 71.348 95.83z" fill="#233d91"/></g></svg>